<svg fill="#ffffff" width="800px" height="800px" viewBox="0 0 32 32" version="1.1"
    xmlns="http://www.w3.org/2000/svg">
    <title>flickr</title>
    <path
        d="M24.33 9.334c-3.681 0-6.666 2.984-6.666 6.666s2.984 6.666 6.666 6.666c3.681 0 6.666-2.984 6.666-6.666v0c0-0 0-0.001 0-0.001 0-3.681-2.984-6.664-6.664-6.664-0 0-0.001 0-0.001 0h0zM7.67 9.334c-0.001 0-0.002 0-0.003 0-3.681 0-6.666 2.984-6.666 6.666s2.984 6.666 6.666 6.666c3.681 0 6.666-2.984 6.666-6.666v0c-0.001-3.68-2.983-6.664-6.663-6.666h-0z"></path>
</svg>