<svg fill="#ffffff" width="800px" height="800px" viewBox="0 0 32 32" version="1.1"
    xmlns="http://www.w3.org/2000/svg">
    <title>asana</title>
    <path
        d="M22.523 8.662c0 3.603-2.921 6.523-6.523 6.523s-6.523-2.921-6.523-6.523c0-3.603 2.921-6.523 6.523-6.523v0c0 0 0 0 0 0 3.603 0 6.523 2.92 6.523 6.523 0 0 0 0 0 0v0zM7.527 16.816c-3.603 0-6.523 2.921-6.523 6.523s2.921 6.523 6.523 6.523c3.603 0 6.523-2.921 6.523-6.523v0c-0.001-3.602-2.921-6.522-6.523-6.523h-0zM24.473 16.816c-3.603 0-6.523 2.921-6.523 6.523s2.921 6.523 6.523 6.523c3.603 0 6.523-2.921 6.523-6.523v0c0-0 0-0 0-0 0-3.603-2.92-6.523-6.523-6.523-0 0-0 0-0 0v0z"></path>
</svg>